<?xml version="1.0" encoding="utf-8"?>
<!-- Generator: Adobe Illustrator 26.3.1, SVG Export Plug-In . SVG Version: 6.00 Build 0)  -->
<svg className="animalKingdom" version="1.1" id="Animal_Kingdom" xmlns="http://www.w3.org/2000/svg" xmlns:xlink="http://www.w3.org/1999/xlink" x="0px"
	 y="0px" viewBox="0 0 80 80" style="enable-background:new 0 0 80 80;" xml:space="preserve">
<path id="_x3C_path_x3E_" d="M59.4,40.6l-6.1,1.8c-0.8,0-0.7-1.2-0.5-1.5l2.3-4.7c0-0.1,0.1-0.1,0.2-0.2c0.1,0,0.2-0.1,0.2-0.1
	s0.2,0,0.3,0c0.1,0,0.2,0.1,0.2,0.1c1.1,1.2,2.3,2.3,3.5,3.4C59.8,39.8,59.8,40.5,59.4,40.6z M51.9,34.4c-2,2.1-3.9,4.5-5.5,6.9
	c-0.2,0.3-0.7,0.3-0.9-0.3c-0.7-2-1.4-3.9-1.6-5.5c0-0.1,0-0.2,0.1-0.3s0.1-0.2,0.2-0.2c1.1-0.9,2.1-1.8,3.1-2.8
	c0-0.1,0.1-0.1,0.2-0.1c0.1,0,0.1,0,0.2,0c1.3,0.2,2.5,0.6,3.6,1.2C51.7,33.5,52.3,34,51.9,34.4z M39.1,40.9
	c-0.1,0.3-0.4,0.8-0.8,0.6c-2-0.7-5.6-3.2-8.5-4.7c-0.1-0.1-0.2-0.1-0.2-0.2s-0.1-0.2-0.1-0.3c-0.1-0.8,0-1.7,0.4-2.5
	c0.2-0.3,0.4-0.5,0.6-0.7c1.1-0.6,2.1-1.2,3.1-1.6c0.3-0.2,0.6-0.3,0.9-0.3c0.3,0,0.6,0.1,0.9,0.3c1.3,1.1,2.7,2.2,4.1,3.1
	c0.1,0,0.1,0.1,0.2,0.2c0.1,0.1,0.1,0.2,0.1,0.2C40.1,37.1,39.8,39,39.1,40.9 M30.6,45.2c-2.5-0.8-6-1.9-9-2.8
	c-0.1,0-0.2-0.1-0.3-0.1c-0.1-0.1-0.1-0.2-0.1-0.3c0-0.1,0-0.2,0.1-0.3c0.1-0.1,0.1-0.1,0.2-0.2c1.3-0.7,2.5-1.4,3.6-2.3
	c0.1-0.1,0.2-0.2,0.4-0.2c0.1,0,0.3-0.1,0.4,0c0.1,0,0.3,0.1,0.4,0.1c0.1,0.1,0.2,0.2,0.3,0.3c1.5,1.8,3.6,3.4,4.7,4.6
	C31.9,44.5,31.3,45.4,30.6,45.2 M78.2,36.6l-1.6-3.8C76.2,31.6,76,30.3,76,29l0.4-4.9c0-0.6-0.1-1.2-0.4-1.7c-0.3-0.5-0.7-1-1.2-1.3
	l-6.7-3.6c-1-0.5-1.8-1.7-1.8-2.5s-0.8-2-1.8-2.5l-4.8-2.4c-1.2-0.5-2.5-0.9-3.8-0.9h-7.3c-1.3,0.1-2.6,0.5-3.6,1.2l-3.1,2.3
	c-1.1,0.7-2.3,1.2-3.6,1.2h-8.2c-1.2,0-2.3,0.5-3.2,1.3c-0.9,0.8-2,1.3-3.2,1.3l-1.9,0c-1.3,0.1-2.5,0.6-3.4,1.5l-0.5,0.5
	c-0.9,0.9-2.2,1.4-3.4,1.4h-1.6c-1.3,0.1-2.5,0.6-3.3,1.6L4.8,27c-0.3,0.4-0.5,1-0.5,1.5C4.4,29,4.6,29.6,5,30l0.5,0.5
	c0.2,0.2,0.3,0.4,0.4,0.7C6,31.3,6,31.6,6,31.9c0,0.3-0.1,0.5-0.2,0.8c-0.1,0.2-0.3,0.5-0.4,0.7l-2.9,2.9c-0.4,0.5-0.7,1-0.9,1.6
	S1.5,39,1.5,39.6l0.8,3.5c0.2,0.6,0.4,1.1,0.9,1.6c0.4,0.5,0.9,0.8,1.5,1l5.1,1.7c1.3,0.4,2.6,0.4,3.9,0.2l6.3-1.5
	c2.2,1.2,4.5,2.9,6.6,4.3c0.3,0.8,0.3,1.7,0.1,2.5c-0.8,2.3-2.5,9.2-4,10.9L16,71.4h38.9l-2.8-4.6c-1.6-3.5-2.6-8.5-2.6-8.5
	c-0.2-0.9-0.1-1.9,0.4-2.8l3.6-7c0.4-0.3,7.7-4.3,7.7-4.3c1-0.5,1.7-0.2,2.8,0.2l4.2,1.6c2.1,0.9,4.3,0.6,5.3-0.7l4.2-5.1
	c0.4-0.5,0.6-1.1,0.7-1.7C78.5,37.8,78.5,37.2,78.2,36.6"/>
</svg>
