<svg width="25" height="25" viewBox="0 0 25 25" fill="none" xmlns="http://www.w3.org/2000/svg">
<g clip-path="url(#clip0_2043_73694)">
<path d="M11.9933 21.1839C7.09746 21.1839 5.60528 12.9195 5.26525 10.4188H6.22262V7.11307C6.22262 7.11307 6.23253 7.10321 6.23583 7.09993C6.29855 6.60702 6.71451 6.22255 7.22951 6.22255C7.74451 6.22255 8.16047 6.60702 8.2232 7.09993C8.2265 7.10321 8.2331 7.10978 8.2364 7.11307V10.4155H6.26884C6.4141 11.4178 6.73102 13.2382 7.33515 15.039C8.12416 17.3918 9.57342 20.1981 11.9933 20.1981C13.941 20.1981 15.1328 19.2484 15.8425 18.2659C14.8423 18.5748 11.4981 19.0019 10.336 11.4046C10.2502 10.8329 9.75169 10.4122 9.17066 10.4122V7.23137H10.1875V6.03196C8.37836 4.89828 8.05813 2.40747 8.05483 2.38118L8.01191 2.00986L3.47596 2L3.44625 2.49619C3.44625 2.49619 3.39013 3.30784 3.00718 4.19507C2.56481 5.22031 1.89135 5.92681 1 6.30142V7.36938H2.43606V23.7864C2.8157 23.9244 3.21846 24.0033 3.63112 24.0033C4.64131 24.0033 5.59868 23.563 6.25894 22.794L6.63198 22.3603L7.00502 22.794C7.66528 23.563 8.62265 24.0033 9.63284 24.0033C10.643 24.0033 11.6004 23.563 12.2607 22.794L12.6337 22.3603L13.0067 22.794C13.667 23.563 14.6244 24.0033 15.6346 24.0033C16.1066 24.0033 16.5688 23.9047 16.9914 23.7207C17.9356 22.9715 18.8896 22.0415 19.8404 20.8914C19.9592 20.7567 20.0748 20.6154 20.187 20.4642C20.263 20.3656 20.3356 20.2638 20.4082 20.1553C21.0123 19.278 21.5141 18.164 21.6792 16.7806H17.6582C17.2753 17.9734 15.8855 21.1839 11.9933 21.1839ZM3.64102 6.39014H2.65724C3.8523 5.30246 4.24516 3.7646 4.3706 3.00881L5.87599 2.9891C5.66801 3.91576 5.08698 5.74937 3.64102 6.39014Z" fill="black"/>
<path d="M15.5288 15.7059C15.9216 16.1659 16.1956 16.7673 15.9843 17.3325C15.9843 17.3325 15.9117 17.5165 16.0636 17.5461C16.2088 17.5724 16.2715 17.4015 16.2715 17.4015C16.8361 16.4157 17.0077 15.213 16.737 14.1122C16.5687 13.4188 16.1956 12.7222 15.4858 12.4659C15.1326 12.3377 14.7266 12.3574 14.4129 12.5677C13.7461 13.0113 13.8781 13.8953 14.2809 14.4769C14.6242 14.9731 15.1359 15.2491 15.5288 15.7059Z" fill="black"/>
<path d="M17.764 13.7706C18.0314 14.6283 17.9026 15.0949 17.8762 15.7061C17.8762 15.762 17.9555 15.8704 18.0083 15.8803C18.0809 15.8901 18.2031 15.762 18.2526 15.7061C18.6586 15.2494 19.2892 13.258 19.4344 12.8505C19.6259 12.3182 19.7084 11.7497 19.682 11.1845C19.6589 10.6949 19.5434 10.1954 19.2562 9.79782C18.969 9.40021 18.4837 9.1209 17.9951 9.17019C17.3942 9.22934 16.9222 9.77153 16.7901 10.3597C16.6581 10.9479 16.8066 11.5624 17.0344 12.121C17.2589 12.6797 17.5824 13.1989 17.7607 13.7739L17.764 13.7706Z" fill="black"/>
<path d="M23.6866 12.8704C23.5017 12.601 23.2442 12.3775 22.9339 12.2757C22.5245 12.1442 22.069 12.2428 21.6959 12.4564C21.3262 12.67 21.0258 12.992 20.7583 13.3239C20.1608 14.06 19.7779 14.6712 19.4081 15.542C19.4081 15.542 19.3322 15.7194 19.3586 15.7753C19.4213 15.9166 19.5402 15.818 19.5402 15.818C20.4249 15.289 20.9234 14.8716 22.201 15.1312C22.4189 15.1772 22.6434 15.2068 22.8646 15.1871C23.3598 15.1444 23.7889 14.7533 23.9342 14.2834C24.0794 13.8102 23.9639 13.2812 23.6866 12.8737V12.8704Z" fill="black"/>
</g>
<defs>
<clipPath id="clip0_2043_73694">
<rect width="23" height="22" fill="white" transform="translate(1 2)"/>
</clipPath>
</defs>
</svg>
