<?xml version="1.0" encoding="UTF-8"?>
<svg viewBox="0 0 24 24" version="1.1" xmlns="http://www.w3.org/2000/svg" xmlns:xlink="http://www.w3.org/1999/xlink">

    <g id="Icon-/-Disneyland-Park" stroke="none" stroke-width="1" fill="none" fill-rule="evenodd">
        <path d="M18.8513514,13.0330579 C18.7905405,13.0330579 18.7297297,12.9917355 18.7094595,12.9090909 L18.2837838,10.5330579 L16.8040541,10.0991736 C16.7432432,10.0991736 16.6824324,10.0371901 16.6824324,9.95454545 C16.6824324,9.89256198 16.7432432,9.83057851 16.8040541,9.80991736 L18.2837838,9.39669421 L18.7094595,6.91735537 C18.7297297,6.8553719 18.7905405,6.79338843 18.8513514,6.79338843 C18.9324324,6.79338843 18.9932432,6.8553719 18.9932432,6.91735537 L19.4189189,9.39669421 L20.8783784,9.80991736 C20.9391892,9.83057851 21,9.89256198 21,9.95454545 C21,10.0371901 20.9391892,10.0991736 20.8783784,10.0991736 L19.4189189,10.5330579 L18.9932432,12.9090909 C18.9932432,12.9917355 18.9324324,13.0330579 18.8513514,13.0330579 Z" id="Path" fill="#3494FF" fill-rule="nonzero"></path>
        <path d="M6.34459459,10.6363636 C6.32432432,10.7190083 6.26351351,10.7603306 6.18243243,10.7603306 C6.12162162,10.7603306 6.06081081,10.7190083 6.04054054,10.6363636 L5.81756757,9.2107438 L4.78378378,8.96280992 C4.7027027,8.96280992 4.66216216,8.90082645 4.66216216,8.81818182 C4.66216216,8.73553719 4.7027027,8.67355372 4.78378378,8.65289256 L5.81756757,8.40495868 L6.04054054,6.04958678 C6.06081081,5.96694215 6.12162162,5.92561983 6.18243243,5.92561983 C6.26351351,5.92561983 6.32432432,5.96694215 6.34459459,6.04958678 L6.60810811,8.40495868 L7.92567568,8.65289256 C7.98648649,8.67355372 8.0472973,8.73553719 8.0472973,8.81818182 C8.0472973,8.90082645 7.98648649,8.96280992 7.92567568,8.96280992 L6.60810811,9.2107438 L6.34459459,10.6363636 Z" id="Path" fill="#3494FF" fill-rule="nonzero"></path>
        <path d="M4.45945946,13.2396694 C4.45945946,13.6528926 4.13513514,13.9834711 3.72972973,13.9834711 C3.32432432,13.9834711 3,13.6528926 3,13.2396694 C3,12.8264463 3.32432432,12.4958678 3.72972973,12.4958678 C4.13513514,12.4958678 4.45945946,12.8264463 4.45945946,13.2396694 Z" id="Path" fill="#3494FF" fill-rule="nonzero"></path>
        <path d="M17.985882,21.8347107 C18.0073753,21.8760331 18.0073753,21.9173554 17.9643887,21.9380165 C17.9428955,21.9793388 17.9214022,22 17.8784156,22 L13.945143,22 C13.8806631,22 13.8161832,21.9380165 13.8161832,21.8760331 C13.8161832,18.5702479 12.1182131,18.3842975 12.0322399,18.3636364 C12.0107466,18.3636364 10.2697899,18.5702479 10.2482966,21.8760331 C10.2482966,21.9380165 10.2053101,22 10.1408302,22 L6.12158442,22 C6.07859784,22 6.05710455,21.9793388 6.03561125,21.9380165 C5.99262467,21.9173554 5.99262467,21.8760331 6.01411796,21.8347107 C6.27203747,20.9049587 6.46547711,18.1363636 6.4869704,17.4958678 C6.16457101,17.4132231 6.10009113,17.3305785 6.07859784,17.3099174 C6.03561125,17.2479339 6.03561125,17.1859504 6.10009113,17.1446281 C6.10009113,17.1239669 7.23923565,16.1115702 7.49715516,14.5826446 C7.51864846,14.5206612 7.56163504,14.4793388 7.62611492,14.4793388 C7.6905948,14.4793388 7.75507468,14.5206612 7.75507468,14.5619835 C7.88403443,15.2644628 8.16344724,15.8636364 8.44286004,16.3181818 L9.28109846,15.553719 L9.28109846,13.322314 C8.93720578,13.2809917 8.89421919,13.2190083 8.8727259,13.1983471 C8.82973931,13.1570248 8.80824602,13.0950413 8.85123261,13.053719 C8.85123261,13.0330579 9.71096432,11.8347107 9.71096432,10.1198347 C9.71096432,10.0371901 9.7539509,9.99586777 9.81843078,9.99586777 C9.90440395,9.99586777 9.94739054,10.0371901 9.94739054,10.1198347 C9.94739054,11.6280992 10.6136826,12.7438017 10.7641357,12.9917355 L10.8071223,12.9917355 L10.8071223,9.29338843 C10.4417363,9.23140496 10.3557631,9.14876033 10.3127765,9.08677686 C10.2912832,9.0661157 10.2697899,9.00413223 10.2912832,8.96280992 C10.3127765,8.94214876 11.3444546,6.81404959 11.6023741,3.61157025 C11.4304277,3.54958678 11.301468,3.38429752 11.301468,3.17768595 C11.301468,2.97107438 11.451921,2.80578512 11.6453607,2.74380165 C11.666854,2.53719008 11.666854,2.33057851 11.666854,2.12396694 C11.666854,2.04132231 11.7313338,2 11.7958137,2 C11.8602936,2 11.9247735,2.04132231 11.9247735,2.12396694 L11.9247735,2.74380165 C12.1397064,2.80578512 12.2686662,2.97107438 12.2686662,3.17768595 C12.2686662,3.38429752 12.1611997,3.52892562 11.9892534,3.61157025 C12.1182131,5.2231405 12.4621058,6.5661157 12.7630119,7.45454545 C12.9134649,7.12396694 13.0424247,6.69008264 13.0424247,6.17355372 C13.0424247,6.11157025 13.1069046,6.04958678 13.1713845,6.04958678 C13.2358643,6.04958678 13.3003442,6.11157025 13.3003442,6.17355372 C13.3003442,7.26859504 14.0096229,8.03305785 14.0311162,8.03305785 C14.0741028,8.09504132 14.0741028,8.15702479 14.0096229,8.19834711 C14.0096229,8.21900826 13.9021564,8.30165289 13.7946899,8.36363636 L13.7946899,9.2107438 L13.7731967,9.2107438 C13.7946899,9.23140496 13.7946899,9.25206612 13.7946899,9.25206612 C13.7946899,9.62396694 13.4722906,9.91322314 13.0854113,9.91322314 C12.9994381,9.91322314 12.9134649,9.91322314 12.8274918,9.87190083 L12.8274918,12.4338843 L13.7731967,12.4338843 C13.8376765,12.4338843 13.8806631,12.4752066 13.9021564,12.5371901 C14.1600759,13.9214876 15.2992204,14.8719008 15.3207137,14.8719008 C15.3637003,14.9132231 15.3637003,14.9958678 15.3207137,15.0371901 C15.2777271,15.0991736 15.191754,15.1198347 14.9338345,15.1818182 C14.8908479,15.1818182 14.8478613,15.1818182 14.8048747,15.2024793 L14.8048747,17.2066116 L14.8693546,17.2066116 C14.8908479,17.2066116 14.8908479,17.2066116 14.8908479,17.1859504 C14.9123412,17.1859504 15.9655125,16.1115702 16.2449253,14.5619835 C16.2449253,14.5206612 16.3094052,14.4793388 16.3738851,14.4793388 C16.438365,14.4793388 16.4813515,14.5206612 16.5028448,14.5826446 C16.7607644,16.1115702 17.8999089,17.1239669 17.8999089,17.1446281 C17.9428955,17.1859504 17.9643887,17.2479339 17.9214022,17.3099174 C17.8999089,17.3305785 17.835429,17.4132231 17.5130296,17.4958678 C17.5345229,18.1363636 17.7279625,20.9049587 17.985882,21.8347107 Z" id="Path" fill="#253B56" fill-rule="nonzero"></path>
    </g>
</svg>
