<svg width="36" height="36" viewBox="0 0 36 36" fill="none" xmlns="http://www.w3.org/2000/svg">
<path fill-rule="evenodd" clip-rule="evenodd" d="M27.4401 4.5C27.3145 4.5 27.2006 4.59626 27.1795 4.71952L26.4117 9.04416L23.6977 9.82832C23.5768 9.84945 23.484 9.96215 23.484 10.0889C23.484 10.2192 23.5768 10.3261 23.6977 10.3519L26.4117 11.1184L27.1795 15.5969C27.2006 15.7236 27.3145 15.8199 27.4401 15.8199C27.5669 15.8199 27.6784 15.7236 27.703 15.5969L28.4895 11.1184L31.2506 10.3519C31.3738 10.3261 31.4689 10.2192 31.4689 10.0889C31.4689 9.96215 31.3738 9.84945 31.2506 9.82832L28.4895 9.04416L27.703 4.71952C27.6784 4.59626 27.5669 4.5 27.4401 4.5ZM8.48174 23.3512L8.00984 25.7659L5.7806 26.1603C5.65382 26.1803 5.55991 26.2859 5.55991 26.4162C5.55991 26.55 5.65382 26.6569 5.7806 26.678L8.00984 27.1229L8.48174 31.0742C8.5017 31.2057 8.60735 31.2961 8.73883 31.2961C8.87265 31.2961 8.9783 31.2022 8.99474 31.0742L9.38682 27.1229L11.1618 26.678C11.2862 26.6569 11.3778 26.55 11.3778 26.4162C11.3778 26.2859 11.2862 26.1803 11.1618 26.1603L9.38682 25.7659L8.99474 23.3512C8.9783 23.2232 8.87265 23.1316 8.73883 23.1316C8.60735 23.1316 8.5017 23.2232 8.48174 23.3512ZM15.8284 27.872C16.5198 27.872 17.0762 27.3155 17.0762 26.6229C17.0762 25.9339 16.5198 25.3763 15.8284 25.3763C15.1428 25.3763 14.5805 25.9339 14.5805 26.6229C14.5805 27.3155 15.1428 27.872 15.8284 27.872ZM6.0486 6.83066C5.82909 6.18149 6.18126 5.82815 6.83042 6.04884L10.2359 7.20044C10.8898 7.42348 11.8711 7.26852 12.4229 6.85648L15.3048 4.70708C15.8565 4.29621 16.2991 4.5216 16.2897 5.20833L16.2451 8.80398C16.2369 9.49189 16.6888 10.3805 17.2499 10.775L20.1859 12.8539C20.747 13.2519 20.6695 13.7402 20.0133 13.9468L16.5796 15.0151C15.9234 15.2193 15.2191 15.9225 15.0125 16.5834L13.9478 20.0124C13.7435 20.6721 13.2505 20.7472 12.8513 20.1873L10.7782 17.2525C10.3779 16.6879 9.49165 16.2371 8.80374 16.2465L5.20927 16.2923C4.51902 16.3005 4.29363 15.8556 4.70684 15.3062L6.85625 12.4243C7.26829 11.8714 7.42441 10.8877 7.20137 10.2361L6.0486 6.83066ZM28.6655 31.016C28.9907 31.3388 29.4145 31.4997 29.8406 31.4997C30.2632 31.4997 30.6893 31.3388 31.0133 31.016C31.6601 30.3657 31.6601 29.315 31.0133 28.6682L19.5138 17.1652C18.8646 16.5184 17.8128 16.5184 17.1672 17.1652C16.5192 17.8144 16.5192 18.8638 17.1672 19.5106L28.6655 31.016Z" fill="#253050"/>
<mask id="mask0_1946_17821" style="mask-type:alpha" maskUnits="userSpaceOnUse" x="4" y="4" width="28" height="28">
<path fill-rule="evenodd" clip-rule="evenodd" d="M27.4401 4.5C27.3145 4.5 27.2006 4.59626 27.1795 4.71952L26.4117 9.04416L23.6977 9.82832C23.5768 9.84945 23.484 9.96215 23.484 10.0889C23.484 10.2192 23.5768 10.3261 23.6977 10.3519L26.4117 11.1184L27.1795 15.5969C27.2006 15.7236 27.3145 15.8199 27.4401 15.8199C27.5669 15.8199 27.6784 15.7236 27.703 15.5969L28.4895 11.1184L31.2506 10.3519C31.3738 10.3261 31.4689 10.2192 31.4689 10.0889C31.4689 9.96215 31.3738 9.84945 31.2506 9.82832L28.4895 9.04416L27.703 4.71952C27.6784 4.59626 27.5669 4.5 27.4401 4.5ZM8.48174 23.3512L8.00984 25.7659L5.7806 26.1603C5.65382 26.1803 5.55991 26.2859 5.55991 26.4162C5.55991 26.55 5.65382 26.6569 5.7806 26.678L8.00984 27.1229L8.48174 31.0742C8.5017 31.2057 8.60735 31.2961 8.73883 31.2961C8.87265 31.2961 8.9783 31.2022 8.99474 31.0742L9.38682 27.1229L11.1618 26.678C11.2862 26.6569 11.3778 26.55 11.3778 26.4162C11.3778 26.2859 11.2862 26.1803 11.1618 26.1603L9.38682 25.7659L8.99474 23.3512C8.9783 23.2232 8.87265 23.1316 8.73883 23.1316C8.60735 23.1316 8.5017 23.2232 8.48174 23.3512ZM15.8284 27.872C16.5198 27.872 17.0762 27.3155 17.0762 26.6229C17.0762 25.9339 16.5198 25.3763 15.8284 25.3763C15.1428 25.3763 14.5805 25.9339 14.5805 26.6229C14.5805 27.3155 15.1428 27.872 15.8284 27.872ZM6.0486 6.83066C5.82909 6.18149 6.18126 5.82815 6.83042 6.04884L10.2359 7.20044C10.8898 7.42348 11.8711 7.26852 12.4229 6.85648L15.3048 4.70708C15.8565 4.29621 16.2991 4.5216 16.2897 5.20833L16.2451 8.80398C16.2369 9.49189 16.6888 10.3805 17.2499 10.775L20.1859 12.8539C20.747 13.2519 20.6695 13.7402 20.0133 13.9468L16.5796 15.0151C15.9234 15.2193 15.2191 15.9225 15.0125 16.5834L13.9478 20.0124C13.7435 20.6721 13.2505 20.7472 12.8513 20.1873L10.7782 17.2525C10.3779 16.6879 9.49165 16.2371 8.80374 16.2465L5.20927 16.2923C4.51902 16.3005 4.29363 15.8556 4.70684 15.3062L6.85625 12.4243C7.26829 11.8714 7.42441 10.8877 7.20137 10.2361L6.0486 6.83066ZM28.6655 31.016C28.9907 31.3388 29.4145 31.4997 29.8406 31.4997C30.2632 31.4997 30.6893 31.3388 31.0133 31.016C31.6601 30.3657 31.6601 29.315 31.0133 28.6682L19.5138 17.1652C18.8646 16.5184 17.8128 16.5184 17.1672 17.1652C16.5192 17.8144 16.5192 18.8638 17.1672 19.5106L28.6655 31.016Z" fill="white"/>
</mask>
<g mask="url(#mask0_1946_17821)">
</g>
</svg>
