<svg width="25" height="25" viewBox="0 0 25 25" fill="none" xmlns="http://www.w3.org/2000/svg">
<g clip-path="url(#clip0_2043_73691)">
<path d="M16.4847 9.29732L16.9938 6.65389L16.1069 6.48847L16.5504 4.1856L17.1252 4.19533L17.2894 3.30662L12.8287 3.27743L12.6645 4.11424L13.2558 4.12397L12.9174 5.88842L11.5378 5.62895L12.2736 1.78218L10.7692 1.5L10.0301 5.35001L8.27278 5.01917L7.76364 7.66261L2.04816 6.58902L1.76896 8.02912C1.36493 10.1212 2.75767 12.1418 4.87962 12.5408L8.58811 13.2349L8.97572 11.2888L9.16295 10.3547L10.1122 10.5266L14.4843 11.3212L15.0525 11.425L15.2332 11.9667L16.1266 14.6458L18.38 15.0675C20.4986 15.4664 22.5451 14.0912 22.9491 11.9959L23.225 10.5525L16.4847 9.28759V9.29732ZM12.6349 7.32204C12.5627 7.69829 12.1948 7.94803 11.8105 7.87668C11.4261 7.80532 11.1765 7.44205 11.2488 7.06256C11.321 6.68308 11.6889 6.43657 12.0732 6.50793C12.4543 6.57929 12.7072 6.94256 12.6349 7.32204ZM14.1623 4.14343L15.6438 4.16938L15.2595 6.349L13.8174 6.07006L14.1623 4.14343ZM15.6733 7.89289C15.6011 8.26914 15.2332 8.51888 14.8489 8.44753C14.4678 8.37617 14.2149 8.0129 14.2872 7.63342C14.3594 7.25393 14.7273 7.00742 15.1116 7.07878C15.4927 7.15014 15.7456 7.51341 15.6733 7.89289Z" fill="black"/>
<path d="M15.647 16.2936L14.3068 12.2717L9.93477 11.4771L9.54717 13.4167L9.05774 15.8752L7.22813 16.8839L6.84381 17.0948L4.48535 22.7254L4.55762 22.8098C5.21457 23.5687 6.16715 24.0034 7.17228 24.0034C8.17742 24.0034 9.13 23.5687 9.78695 22.8098L10.0629 22.4887C10.6935 19.9782 12.6743 17.2829 15.6437 16.2969L15.647 16.2936Z" fill="black"/>
<path d="M19.1191 22.0739C18.9976 21.9702 18.8826 21.8599 18.7808 21.7496C18.6264 21.5842 18.4917 21.409 18.3899 21.2306C18.3209 21.1106 18.2651 20.9906 18.2257 20.8641C18.206 20.8025 18.1895 20.7376 18.1764 20.676C18.1764 20.676 18.1764 20.676 18.1764 20.6728C18.1633 20.6014 18.1534 20.5268 18.1468 20.4554C18.1468 20.4295 18.1468 20.4068 18.1435 20.3808C18.1435 20.329 18.137 20.2803 18.137 20.2284C18.137 20.1992 18.137 20.17 18.1403 20.1408C18.1403 20.0954 18.1435 20.05 18.1501 20.0046C18.1534 19.9722 18.16 19.943 18.1633 19.9105C18.1698 19.8684 18.1764 19.823 18.1863 19.7808C18.1928 19.7484 18.2027 19.7159 18.2125 19.6867C18.2257 19.6446 18.2355 19.6024 18.2519 19.5603C18.2618 19.5278 18.2749 19.4986 18.2881 19.4662C18.3045 19.4273 18.3209 19.3851 18.3406 19.3462C18.3538 19.317 18.3702 19.2846 18.3866 19.2554C18.4063 19.2164 18.4293 19.1808 18.4556 19.1418C18.4753 19.1126 18.495 19.0835 18.5147 19.0575C18.541 19.0218 18.5706 18.9862 18.6001 18.9505C18.6231 18.9245 18.6461 18.8986 18.6691 18.8726C18.702 18.8402 18.7348 18.8078 18.7709 18.7753C18.7972 18.7526 18.8235 18.7267 18.8498 18.704C18.8892 18.6715 18.9319 18.6456 18.9713 18.6164C19.0009 18.5969 19.0304 18.5742 19.06 18.5548C19.106 18.5256 19.1585 18.4996 19.2078 18.4737C19.2374 18.4575 19.2669 18.4413 19.2998 18.425C19.3622 18.3958 19.4279 18.3731 19.4969 18.3504C19.5231 18.3407 19.5461 18.331 19.5724 18.3212C19.6677 18.2921 19.7695 18.2661 19.8779 18.2466C19.8976 18.2434 19.9206 18.2402 19.9436 18.2369C20.0323 18.2207 20.121 18.2077 20.2162 18.2012C20.2589 18.198 20.3049 18.198 20.3476 18.1947C20.4166 18.1915 20.4823 18.185 20.5513 18.185C20.5611 18.185 20.5743 18.185 20.5841 18.185C20.7319 18.185 20.883 18.1915 21.044 18.211C20.9487 18.1201 20.8535 18.0293 20.7549 17.945C20.0816 17.3385 19.3655 16.8682 18.0713 16.8682C17.664 16.8682 17.2698 16.9038 16.8921 16.9687C16.5636 17.0271 16.2482 17.1082 15.9428 17.2087C15.2431 17.4423 14.6059 17.7796 14.0409 18.1947C12.2967 19.4792 11.2127 21.4739 10.9072 23.18C11.5248 23.7022 12.3131 24.0006 13.1343 24.0006C14.1394 24.0006 15.092 23.5659 15.749 22.807L16.1201 22.3788L16.4913 22.807C17.1483 23.5659 18.1008 24.0006 19.106 24.0006C19.8483 24.0006 20.5578 23.7638 21.1458 23.3357C20.5184 23.034 19.8483 22.661 19.2998 22.2296C19.2341 22.1777 19.1717 22.1258 19.1126 22.0739H19.1191Z" fill="black"/>
</g>
<defs>
<clipPath id="clip0_2043_73691">
<rect width="21.5217" height="22.5" fill="white" transform="translate(1.69995 1.5)"/>
</clipPath>
</defs>
</svg>
