<?xml version="1.0" encoding="UTF-8"?>
<svg viewBox="0 0 24 24" version="1.1" xmlns="http://www.w3.org/2000/svg" xmlns:xlink="http://www.w3.org/1999/xlink">


    <g id="Icon-/-Walt-Disney-Studios-Park" stroke="none" stroke-width="1" fill="none" fill-rule="evenodd">
        <g id="walt_disney_studios_park" transform="translate(3.000000, 2.000000)" fill-rule="nonzero">
            <path d="M13.9929497,2.27272727 C13.9929497,2.29338843 13.9929497,2.31404959 13.9929497,2.33471074 C13.9141461,3.38842975 12.9685024,4.17355372 11.8061488,4.17355372 L11.7076442,4.17355372 L11.7076442,6.48760331 C11.7076442,6.52892562 11.6879433,6.54958678 11.6485415,6.57024793 C11.6485415,6.59090909 11.6485415,6.61157025 11.6288406,6.6322314 C11.6288406,6.69421488 11.6091397,6.75619835 11.5894388,6.83884298 L11.4712333,7.10743802 L13.0473061,19.4628099 C13.0867079,19.6900826 12.9685024,19.8966942 12.7714933,19.9793388 C12.7320915,19.9793388 12.6729888,20 12.633587,20 C12.4759797,20 12.3380733,19.8966942 12.2592697,19.731405 L9.00861966,12.5413223 L5.75796964,19.731405 C5.679166,19.8966942 5.54125963,20 5.38365236,20 C5.32454963,20 5.28514781,19.9793388 5.245746,19.9793388 C5.0487369,19.8966942 4.93053145,19.6900826 4.95023236,19.4628099 L6.54600601,7.10743802 L6.42780055,6.83884298 C6.38839873,6.75619835 6.38839873,6.69421488 6.38839873,6.6322314 C6.36869782,6.61157025 6.36869782,6.59090909 6.34899691,6.57024793 C6.329296,6.54958678 6.3095951,6.52892562 6.3095951,6.48760331 L6.3095951,4.17355372 L6.21109055,4.17355372 C5.0487369,4.17355372 4.10309326,3.38842975 4.02428962,2.33471074 C4.00458871,2.31404959 4.02428962,2.29338843 4.02428962,2.27272727 L4.00458871,2.27272727 C3.92578508,1.13636364 4.87142872,0.123966942 6.112586,0 L6.36869782,0 C7.53105147,0 8.4569942,0.785123967 8.55549875,1.83884298 L8.55549875,1.90082645 C8.57519966,2.31404959 8.47669511,2.72727273 8.2402842,3.09917355 C8.47669511,3.0785124 8.73280693,3.05785124 8.96921784,3.05785124 L9.02832057,3.05785124 C9.28443239,3.05785124 9.5208433,3.0785124 9.77695512,3.09917355 C9.54054421,2.72727273 9.42233876,2.31404959 9.46174058,1.90082645 L9.46174058,1.83884298 C9.54054421,0.785123967 10.4861879,0 11.6485415,0 L11.9046533,0 C13.1458106,0.123966942 14.0914543,1.13636364 13.9929497,2.27272727 Z M7.62955602,7.41735537 L9.00861966,10.4545455 L10.3876833,7.41735537 C9.97396422,7.52066116 9.5208433,7.58264463 9.02832057,7.58264463 L8.96921784,7.58264463 C8.49639602,7.58264463 8.04327511,7.52066116 7.62955602,7.41735537 Z M7.21583692,8.57438017 L6.15198782,16.7561983 L8.53579784,11.5082645 L7.21583692,8.57438017 Z M11.8455506,16.7561983 L10.8014024,8.57438017 L9.48144149,11.5082645 L11.8455506,16.7561983 Z" id="s" fill="#253B56"></path>
            <path d="M2.35135135,12.5619835 C2.27027027,12.5619835 2.20945946,12.5 2.20945946,12.4380165 L1.74324324,9.8553719 L0.121621622,9.40082645 C0.0608108108,9.38016529 1.13686838e-13,9.31818182 1.13686838e-13,9.23553719 C1.13686838e-13,9.15289256 0.0608108108,9.09090909 0.121621622,9.09090909 L1.74324324,8.63636364 L2.20945946,5.97107438 C2.20945946,5.88842975 2.27027027,5.84710744 2.35135135,5.84710744 C2.43243243,5.84710744 2.49324324,5.88842975 2.49324324,5.97107438 L2.95945946,8.63636364 L4.54054054,9.09090909 C4.60135135,9.09090909 4.66216216,9.15289256 4.66216216,9.23553719 C4.66216216,9.31818182 4.60135135,9.38016529 4.54054054,9.40082645 L2.95945946,9.8553719 L2.49324324,12.4380165 C2.49324324,12.5 2.43243243,12.5619835 2.35135135,12.5619835 Z" id="Path" fill="#3494FF"></path>
            <path d="M15.2972973,9.50413223 C15.277027,9.58677686 15.2162162,9.62809917 15.1351351,9.62809917 C15.0743243,9.62809917 14.9932432,9.58677686 14.9932432,9.50413223 L14.7702703,8.0785124 L13.7364865,7.83057851 C13.6554054,7.83057851 13.5945946,7.76859504 13.5945946,7.68595041 C13.5945946,7.60330579 13.6554054,7.54132231 13.7364865,7.54132231 L14.7702703,7.27272727 L14.9932432,4.91735537 C14.9932432,4.83471074 15.0743243,4.79338843 15.1351351,4.79338843 C15.2162162,4.79338843 15.277027,4.83471074 15.2972973,4.91735537 L15.5608108,7.27272727 L16.8581081,7.54132231 C16.9391892,7.54132231 17,7.60330579 17,7.68595041 C17,7.76859504 16.9391892,7.83057851 16.8581081,7.83057851 L15.5608108,8.0785124 L15.2972973,9.50413223 Z" id="Path" fill="#3494FF"></path>
            <path d="M16.027027,12.2933884 C16.027027,12.7066116 15.7027027,13.0371901 15.2972973,13.0371901 C14.8918919,13.0371901 14.5675676,12.7066116 14.5675676,12.2933884 C14.5675676,11.8801653 14.8918919,11.5495868 15.2972973,11.5495868 C15.7027027,11.5495868 16.027027,11.8801653 16.027027,12.2933884 Z" id="Path" fill="#3494FF"></path>
        </g>
    </g>
</svg>