<svg id="WDW_Logo" className="WDW_logo" data-name="Layer 1" xmlns="http://www.w3.org/2000/svg" viewBox="0 0 181.76 164.33"><path d="M0,0V164.33H133.47a52.51,52.51,0,0,0,16.1-2.36A43.08,43.08,0,0,0,162,156a54.18,54.18,0,0,0,9.05-8.39,43.48,43.48,0,0,0,6.37-9.73,44.36,44.36,0,0,0,3.35-10.06,46.68,46.68,0,0,0,1-9.06V47.62a51.23,51.23,0,0,0-2-14.75,43.45,43.45,0,0,0-5.7-12.07,37.43,37.43,0,0,0-8.72-9.06,72.37,72.37,0,0,0-10.4-6.37,52.91,52.91,0,0,0-10.73-4A41.94,41.94,0,0,0,134.14,0ZM133.47,24.15a22.35,22.35,0,0,1,11.74,3,25.82,25.82,0,0,1,8,7.37,30.22,30.22,0,0,1,4.35,9.4A33.38,33.38,0,0,1,159,52.32v65.73a23.28,23.28,0,0,1-1,5,21.06,21.06,0,0,1-4.36,7.72,35.34,35.34,0,0,1-8.05,7q-4.69,3-12.07,3h-108V24.15ZM91.89,132.8a40.21,40.21,0,0,0,14.42-2.68,33.82,33.82,0,0,0,12.07-7.71,39.48,39.48,0,0,0,8.05-11.74,33.92,33.92,0,0,0,3-14.09,41.63,41.63,0,0,0-1.68-11.73,27,27,0,0,0-5-9.73,34.46,34.46,0,0,0,10.73,2,21.76,21.76,0,0,0,9.05-1.68,24.72,24.72,0,0,0,6.37-4,14.62,14.62,0,0,0,4-6A24.53,24.53,0,0,0,154.26,57a20.81,20.81,0,0,0-2.35-9.39,27.55,27.55,0,0,0-6-8,29.9,29.9,0,0,0-8.39-5.37,25.28,25.28,0,0,0-10.06-2,20.28,20.28,0,0,0-8.38,1.68,21.58,21.58,0,0,0-6.37,4.37,21.21,21.21,0,0,0-4.36,6.36,18.45,18.45,0,0,0-1.68,7.72A24.61,24.61,0,0,0,110,64.39a25.18,25.18,0,0,0-8.72-3.69,44.74,44.74,0,0,0-9.39-1A36.24,36.24,0,0,0,81.82,61a79.37,79.37,0,0,0-9.39,3.35,22.25,22.25,0,0,0,3.36-12.07,27.57,27.57,0,0,0-1.34-8.72,20.79,20.79,0,0,0-7.38-8.38,20.6,20.6,0,0,0-11.4-3,27.74,27.74,0,0,0-10.4,2,24.47,24.47,0,0,0-8.38,5.37,37.41,37.41,0,0,0-6,8,20,20,0,0,0-2.68,10.06,18.38,18.38,0,0,0,1.68,7.72,17.24,17.24,0,0,0,4.35,6,24.78,24.78,0,0,0,6.38,4,21.67,21.67,0,0,0,9.05,1.68A22,22,0,0,0,55,76.46q2.66-.66,6-1.34a31.73,31.73,0,0,0-5.36,9.39,34.29,34.29,0,0,0-2,12.07,33.92,33.92,0,0,0,3,14.09,36.31,36.31,0,0,0,8.39,11.74,38.14,38.14,0,0,0,12.07,7.7A39.13,39.13,0,0,0,91.89,132.8Zm-20.12-51a23.7,23.7,0,0,0-2,5.7,29.76,29.76,0,0,0-.67,6.37H59a27.46,27.46,0,0,1,4-12.07ZM63.05,112A33.12,33.12,0,0,1,59,98.6H69.08a23.17,23.17,0,0,0,1,6.7c.67,2.25,1.44,4.48,2.35,6.71ZM82.5,65.73c-1.35,1.34-2.8,2.92-4.36,4.7a18.94,18.94,0,0,0-3.69,6.7H65.73a38.59,38.59,0,0,1,7.71-7A31,31,0,0,1,82.5,65.73Zm-7.38,51a115.39,115.39,0,0,0,7.38,10.05,30,30,0,0,1-15.43-10.05ZM89.2,93.9H74.45a23.37,23.37,0,0,1,1-6.71q1-3.34,1.68-5.36H89.2Zm0,18.11H78.47a29.24,29.24,0,0,1-3-6.71,23.15,23.15,0,0,1-1-6.7H89.2Zm0-34.88H80.48a19.16,19.16,0,0,1,4.36-6q2.35-2,4.36-4V77.13Zm0,47.62a26.42,26.42,0,0,1-4-3.35,46.72,46.72,0,0,1-4-4.69h8v8Zm4.7-57.68c1.34,1.34,2.78,2.68,4.36,4a19.15,19.15,0,0,1,4.35,6H93.89V67.07Zm0,14.76H106a15.08,15.08,0,0,1,2,5.37,34.68,34.68,0,0,1,.67,6.7H93.9V81.83Zm0,16.77h14.75a23.63,23.63,0,0,1-4,13.41H93.9V98.6Zm0,18.11h8c-1.34,1.78-2.68,3.46-4,5a9.32,9.32,0,0,1-4,3v-8Zm14.75-39.58a19.25,19.25,0,0,0-3.69-6.7c-1.57-1.78-3-3.36-4.36-4.7a31.07,31.07,0,0,1,9.06,4.36,26.47,26.47,0,0,1,7,7Zm-8.05,49.63c1.34-1.34,2.69-2.78,4-4.35a20.37,20.37,0,0,0,3.35-5.7h8.72a46.33,46.33,0,0,1-7.71,6.36A31.21,31.21,0,0,1,100.6,126.76ZM114,93.9a48.31,48.31,0,0,0-2.68-12.07h9.39a43.55,43.55,0,0,1,2.34,5.7,20,20,0,0,1,1,6.37ZM111.34,112c.44-2.23,1-4.46,1.67-6.71a23.17,23.17,0,0,0,1-6.7h10.06a23.17,23.17,0,0,1-1,6.7,29.2,29.2,0,0,1-3,6.71Z"/></svg>