<?xml version="1.0" encoding="utf-8"?>
<!-- Generator: Adobe Illustrator 26.3.1, SVG Export Plug-In . SVG Version: 6.00 Build 0)  -->
<svg class="epcot logo" version="1.1" id="epcot" xmlns="http://www.w3.org/2000/svg" xmlns:xlink="http://www.w3.org/1999/xlink" x="0px" y="0px"
	 viewBox="0 0 80 80" style="enable-background:new 0 0 80 80;" xml:space="preserve">
<path id="_x3C_path_x3E_" d="M47,35.6h-4.9l2.5-4.3l2.5-4.3h-9.8l2.5-4.3l2.5-4.3l2.5,4.3l2.5,4.3l2.5-4.3l2.5-4.3l2.5,4.3l2.5,4.2
	l2.5,4.3l2.5,4.3H52l2.5,4.3l2.5,4.3H47l2.5-4.3l2.5-4.3L47,35.6z M71.8,71.1l-11-12.5c4.1-4.1,6.9-9.4,8-15
	c1.1-5.7,0.5-11.6-1.7-16.9c-2.2-5.4-6-9.9-10.8-13.2c-4.8-3.2-10.5-4.9-16.3-4.9c-5.8,0-11.5,1.7-16.3,4.9
	c-4.8,3.2-8.6,7.8-10.8,13.2c-2.2,5.4-2.8,11.3-1.7,16.9c1.1,5.7,3.9,10.9,8,15L8,71.1L24.1,71l3-6.7c4,2,8.4,3,12.9,3s8.9-1,12.9-3
	l3,6.7L71.8,71.1z"/>
</svg>
