<?xml version="1.0" encoding="utf-8"?>
<!-- Generator: Adobe Illustrator 26.3.1, SVG Export Plug-In . SVG Version: 6.00 Build 0)  -->
<svg version="1.1" id="Hollywood_Studios" xmlns="http://www.w3.org/2000/svg" xmlns:xlink="http://www.w3.org/1999/xlink" x="0px"
	 y="0px" viewBox="0 0 80 80" style="enable-background:new 0 0 80 80;" xml:space="preserve">
<path id="_x3C_path_x3E_" d="M52,38.5h-7.2V34H52L52,38.5z M52,47.4h-7.2v-4.5H52L52,47.4z M52,56.3h-7.2v-4.5H52L52,56.3z M43.3,28
	H37V24c0-0.8,0.3-1.6,0.9-2.2c0.6-0.6,1.4-0.9,2.2-0.9s1.6,0.3,2.2,0.9c0.6,0.6,0.9,1.4,0.9,2.2V28z M35.6,38.5h-7.2V34h7.2V38.5z
	 M35.6,47.5h-7.2V43h7.2V47.5z M35.6,56.4h-7.2v-4.5h7.2V56.4z M58,59.8V30.7h5.5V28h-1.4v-9.5h1.4l-1.4-2.9H58v-1.9h1.2l-2.6-5.4
	L54,13.8h1.2v1.9h-7.6v-1.9h1.4l-1.4-2.9h-2.4V8.6l-5.1-5.1l-4.9,4.9v2.5h-2.5l-1.3,2.9h1.4v1.9h-7.5v-1.9h1.2l-2.6-5.4l-2.6,5.4
	h1.2v1.9h-4.2l-1.4,2.9h1.4V28h-1.4v2.7h5.5v29.1h-6.9v2.7h1.4v13.9h46.6V62.5h1.4v-2.7L58,59.8z"/>
</svg>
