<?xml version="1.0" encoding="utf-8"?>
<!-- Generator: Adobe Illustrator 26.3.1, SVG Export Plug-In . SVG Version: 6.00 Build 0)  -->
<svg version="1.1" id="MK_x5F_logo"  xmlns="http://www.w3.org/2000/svg" xmlns:xlink="http://www.w3.org/1999/xlink" x="0px"
	 y="0px" viewBox="0 0 80 80" style="enable-background:new 0 0 80 80;" xml:space="preserve">
<path d="M66,62.7h-2.1v-1.6h0.9l-3.5-10l-3.5,10h0.8v1.6h-2.9L55.7,49h1.8L54,36L50.4,46V28.4l1.5-5.6h-1.5v-2.7h1.4l-4-15.8
	l7.1-2.2L47.8,0v4.2l-4.1,15.9h1.4v2.7h-1.5l1.5,5.6v9.1l-0.4-1.3l-3.3-10.4h-4.5L34.1,36l-1.7-6l-3.1,13h1.3l0.2,10.7L26,40.8
	l-4.3,13.1h1.8v8.8h-2.8v-1.6h1l-3.5-10l-3.5,10.4h0.9v1.2h-2.1l2.1,5.4l-1.9,12.1h22.1v-9c0-1.6,0.5-3.2,1.4-4.6
	c0.7-0.9,1.5-1.6,2.5-2.1c1,0.5,1.9,1.2,2.5,2.1c1,1.3,1.5,2.9,1.4,4.6v9h22.1l-1.9-12.1C63.9,68.1,66,62.7,66,62.7z"/>
</svg>
